<svg id="visual" viewBox="0 0 900 600" width="900" height="600" xmlns="http://www.w3.org/2000/svg" xmlns:xlink="http://www.w3.org/1999/xlink" version="1.1"><path d="M0 177L21.5 174.7C43 172.3 86 167.7 128.8 201.5C171.7 235.3 214.3 307.7 257.2 354.5C300 401.3 343 422.7 385.8 432.5C428.7 442.3 471.3 440.7 514.2 439.2C557 437.7 600 436.3 642.8 405.8C685.7 375.3 728.3 315.7 771.2 315.3C814 315 857 374 878.5 403.5L900 433L900 0L878.5 0C857 0 814 0 771.2 0C728.3 0 685.7 0 642.8 0C600 0 557 0 514.2 0C471.3 0 428.7 0 385.8 0C343 0 300 0 257.2 0C214.3 0 171.7 0 128.8 0C86 0 43 0 21.5 0L0 0Z" fill="#9dc183" stroke-linecap="round" stroke-linejoin="miter"></path></svg>