<svg id="visual" viewBox="0 0 900 600" width="900" height="600" xmlns="http://www.w3.org/2000/svg" xmlns:xlink="http://www.w3.org/1999/xlink" version="1.1"><rect x="0" y="0" width="900" height="600" fill="#ffffff"></rect><path d="M0 403L21.5 418.5C43 434 86 465 128.8 457.5C171.7 450 214.3 404 257.2 371.3C300 338.7 343 319.3 385.8 336.5C428.7 353.7 471.3 407.3 514.2 421C557 434.7 600 408.3 642.8 414C685.7 419.7 728.3 457.3 771.2 470.3C814 483.3 857 471.7 878.5 465.8L900 460L900 0L878.5 0C857 0 814 0 771.2 0C728.3 0 685.7 0 642.8 0C600 0 557 0 514.2 0C471.3 0 428.7 0 385.8 0C343 0 300 0 257.2 0C214.3 0 171.7 0 128.8 0C86 0 43 0 21.5 0L0 0Z" fill="#daa06d"></path><path d="M0 367L21.5 345.8C43 324.7 86 282.3 128.8 289.5C171.7 296.7 214.3 353.3 257.2 355.2C300 357 343 304 385.8 283.5C428.7 263 471.3 275 514.2 277.5C557 280 600 273 642.8 293C685.7 313 728.3 360 771.2 355.2C814 350.3 857 293.7 878.5 265.3L900 237L900 0L878.5 0C857 0 814 0 771.2 0C728.3 0 685.7 0 642.8 0C600 0 557 0 514.2 0C471.3 0 428.7 0 385.8 0C343 0 300 0 257.2 0C214.3 0 171.7 0 128.8 0C86 0 43 0 21.5 0L0 0Z" fill="#daa06d"></path><path d="M0 209L21.5 206C43 203 86 197 128.8 202C171.7 207 214.3 223 257.2 222.5C300 222 343 205 385.8 204.2C428.7 203.3 471.3 218.7 514.2 230.3C557 242 600 250 642.8 241.5C685.7 233 728.3 208 771.2 208.5C814 209 857 235 878.5 248L900 261L900 0L878.5 0C857 0 814 0 771.2 0C728.3 0 685.7 0 642.8 0C600 0 557 0 514.2 0C471.3 0 428.7 0 385.8 0C343 0 300 0 257.2 0C214.3 0 171.7 0 128.8 0C86 0 43 0 21.5 0L0 0Z" fill="#daa06d"></path><path d="M0 131L21.5 140C43 149 86 167 128.8 174.2C171.7 181.3 214.3 177.7 257.2 182.2C300 186.7 343 199.3 385.8 192.3C428.7 185.3 471.3 158.7 514.2 150.5C557 142.3 600 152.7 642.8 162C685.7 171.3 728.3 179.7 771.2 174.5C814 169.3 857 150.7 878.5 141.3L900 132L900 0L878.5 0C857 0 814 0 771.2 0C728.3 0 685.7 0 642.8 0C600 0 557 0 514.2 0C471.3 0 428.7 0 385.8 0C343 0 300 0 257.2 0C214.3 0 171.7 0 128.8 0C86 0 43 0 21.5 0L0 0Z" fill="#daa06d"></path><path d="M0 147L21.5 140.7C43 134.3 86 121.7 128.8 111.2C171.7 100.7 214.3 92.3 257.2 90C300 87.7 343 91.3 385.8 91.7C428.7 92 471.3 89 514.2 87.3C557 85.7 600 85.3 642.8 88.3C685.7 91.3 728.3 97.7 771.2 92C814 86.3 857 68.7 878.5 59.8L900 51L900 0L878.5 0C857 0 814 0 771.2 0C728.3 0 685.7 0 642.8 0C600 0 557 0 514.2 0C471.3 0 428.7 0 385.8 0C343 0 300 0 257.2 0C214.3 0 171.7 0 128.8 0C86 0 43 0 21.5 0L0 0Z" fill="#daa06d"></path></svg>